<svg
  version="1.1"
  xmlns="http://www.w3.org/2000/svg"
  xmlns:xlink="http://www.w3.org/1999/xlink"
  x="0px"
  y="0px"
  viewBox="0 0 1000 1000"
  enable-background="new 0 0 1000 1000"
  xml:space="preserve"
>
<g><g transform="translate(0.000000,511.000000) scale(0.100000,-0.100000)"><path
        d="M5858.3,4334.5c0-30.6,0-434.4,0-899.4l-1.9-847.8l-738.7-3.8l-740.6-5.7V118.6v-2459.1l740.6-5.7l740.6-3.8l-3.8-909c-1.9-499.5,0-909,5.7-907.1c5.7,0,916.7,964.5,2024.7,2143.3L9900,118.6l-1087,1154C8214,1906,7308.9,2866.7,6801.7,3406.3c-509.1,537.7-928.1,979.8-933.9,979.8C5864,4386.1,5860.2,4363.2,5858.3,4334.5z"
      /><path
        d="M100,118.6V-2350h679.4h679.4V118.6v2468.7H779.4H100V118.6z"
      /><path
        d="M2218.5,2573.9c-7.7-5.7-13.4-1117.6-13.4-2468.7V-2350h679.4h679.4V118.6v2468.7h-666C2530.4,2587.3,2224.2,2581.5,2218.5,2573.9z"
      /></g></g>
</svg>
